<svg aria-hidden="true" style="position: absolute; width: 0; height: 0; overflow: hidden;" version="1.1" xmlns="http://www.w3.org/2000/svg" xmlns:xlink="http://www.w3.org/1999/xlink">
<defs>
<symbol id="logout" viewBox="0 0 24 24">
<path d="M9 20h-4c-0.276 0-0.525-0.111-0.707-0.293s-0.293-0.431-0.293-0.707v-14c0-0.276 0.111-0.525 0.293-0.707s0.431-0.293 0.707-0.293h4c0.552 0 1-0.448 1-1s-0.448-1-1-1h-4c-0.828 0-1.58 0.337-2.121 0.879s-0.879 1.293-0.879 2.121v14c0 0.828 0.337 1.58 0.879 2.121s1.293 0.879 2.121 0.879h4c0.552 0 1-0.448 1-1s-0.448-1-1-1zM18.586 11h-9.586c-0.552 0-1 0.448-1 1s0.448 1 1 1h9.586l-3.293 3.293c-0.391 0.391-0.391 1.024 0 1.414s1.024 0.391 1.414 0l5-5c0.092-0.092 0.166-0.202 0.217-0.324 0.15-0.362 0.078-0.795-0.217-1.090l-5-5c-0.391-0.391-1.024-0.391-1.414 0s-0.391 1.024 0 1.414z"></path>
</symbol>
<symbol id="login" viewBox="0 0 24 24">
<path d="M15 4h4c0.276 0 0.525 0.111 0.707 0.293s0.293 0.431 0.293 0.707v14c0 0.276-0.111 0.525-0.293 0.707s-0.431 0.293-0.707 0.293h-4c-0.552 0-1 0.448-1 1s0.448 1 1 1h4c0.828 0 1.58-0.337 2.121-0.879s0.879-1.293 0.879-2.121v-14c0-0.828-0.337-1.58-0.879-2.121s-1.293-0.879-2.121-0.879h-4c-0.552 0-1 0.448-1 1s0.448 1 1 1zM12.586 11h-9.586c-0.552 0-1 0.448-1 1s0.448 1 1 1h9.586l-3.293 3.293c-0.391 0.391-0.391 1.024 0 1.414s1.024 0.391 1.414 0l5-5c0.096-0.096 0.168-0.206 0.217-0.324s0.076-0.247 0.076-0.383c0-0.13-0.025-0.261-0.076-0.383-0.049-0.118-0.121-0.228-0.217-0.324l-5-5c-0.391-0.391-1.024-0.391-1.414 0s-0.391 1.024 0 1.414z"></path>
</symbol>
<symbol id="online" viewBox="0 0 32 32">
<path fill="#232323" d="M32 16c0 8.837-7.163 16-16 16s-16-7.163-16-16c0-8.837 7.163-16 16-16s16 7.163 16 16z"></path>
<path fill="#38cd3e"  d="M26.667 16c0 5.891-4.776 10.667-10.667 10.667s-10.667-4.776-10.667-10.667c0-5.891 4.776-10.667 10.667-10.667s10.667 4.776 10.667 10.667z"></path>
</symbol>
<symbol id="heart" viewBox="0 0 32 32">
<path stroke-linejoin="round" stroke-linecap="round" stroke-miterlimit="4" stroke-width="2.4615" d="M27.787 6.147c-0.681-0.681-1.49-1.222-2.379-1.591s-1.844-0.559-2.807-0.559-1.917 0.19-2.807 0.559c-0.89 0.369-1.699 0.909-2.38 1.591l-1.413 1.413-1.413-1.413c-1.376-1.376-3.241-2.148-5.187-2.148s-3.811 0.773-5.187 2.148c-1.376 1.376-2.148 3.241-2.148 5.187s0.773 3.811 2.148 5.187l11.787 11.787 11.787-11.787c0.681-0.681 1.222-1.49 1.591-2.379s0.559-1.844 0.559-2.807-0.19-1.917-0.559-2.807c-0.369-0.89-0.909-1.699-1.591-2.38z"></path>
</symbol>
<symbol id="logo" viewBox="0 0 32 32">
<path fill="#ffda44" style="fill: var(--color2, #ffda44)" d="M16 32c8.837 0 16-7.163 16-16s-7.163-16-16-16c-8.837 0-16 7.163-16 16s7.163 16 16 16z"></path>
<path fill="#338af3" style="fill: var(--color3, #338af3)" d="M0 16c0-8.836 7.163-16 16-16s16 7.163 16 16z"></path>
</symbol>
<symbol id="star" viewBox="0 0 32 32">
<path fill="#FFC531" d="M15.116 1.676c0.375-0.711 1.394-0.711 1.769 0l3.777 7.158c0.145 0.274 0.408 0.466 0.714 0.519l7.975 1.38c0.792 0.137 1.107 1.106 0.547 1.682l-5.641 5.804c-0.216 0.222-0.317 0.532-0.273 0.839l1.152 8.010c0.114 0.796-0.71 1.395-1.431 1.040l-7.263-3.571c-0.278-0.137-0.604-0.137-0.882 0l-7.262 3.571c-0.722 0.355-1.546-0.244-1.431-1.040l1.152-8.010c0.044-0.307-0.057-0.617-0.273-0.839l-5.64-5.804c-0.56-0.577-0.246-1.545 0.547-1.682l7.974-1.38c0.306-0.053 0.569-0.244 0.714-0.519l3.776-7.158z"></path>
</symbol>
<symbol id="close" viewBox="0 0 32 32">
<path stroke-linejoin="round" stroke-linecap="round" stroke-miterlimit="4" stroke-width="2.5" d="M24 8l-16 16"></path>
<path stroke-linejoin="round" stroke-linecap="round" stroke-miterlimit="4" stroke-width="2.5" d="M8 8l16 16"></path>
</symbol>
<symbol id="book" viewBox="0 0 32 32">
<path stroke="#e2e2e2" fill="none" stroke-linejoin="round" stroke-linecap="round" stroke-miterlimit="4" stroke-width="3" d="M29.333 8.267c0-1.493 0-2.24-0.291-2.811-0.256-0.502-0.664-0.91-1.165-1.165-0.571-0.291-1.317-0.291-2.811-0.291h-0.533c-2.987 0-4.48 0-5.621 0.581-1.004 0.511-1.819 1.327-2.331 2.331-0.581 1.141-0.581 2.634-0.581 5.621v15.467l0.133-0.2c0.926-1.389 1.389-2.084 2.001-2.587 0.542-0.445 1.166-0.779 1.837-0.983 0.758-0.23 1.593-0.23 3.262-0.23h1.833c1.494 0 2.24 0 2.811-0.291 0.502-0.256 0.91-0.664 1.165-1.165 0.291-0.57 0.291-1.317 0.291-2.811v-11.467z"></path>
<path stroke="#e2e2e2" fill="none" stroke-linejoin="round" stroke-linecap="round" stroke-miterlimit="4" stroke-width="3" d="M2.667 8.267c0-1.493 0-2.24 0.291-2.811 0.256-0.502 0.664-0.91 1.165-1.165 0.57-0.291 1.317-0.291 2.811-0.291h0.533c2.987 0 4.48 0 5.621 0.581 1.004 0.511 1.819 1.327 2.331 2.331 0.581 1.141 0.581 2.634 0.581 5.621v15.467l-0.133-0.2c-0.926-1.389-1.389-2.084-2.001-2.587-0.542-0.445-1.166-0.779-1.837-0.983-0.758-0.23-1.593-0.23-3.262-0.23h-1.833c-1.493 0-2.24 0-2.811-0.291-0.502-0.256-0.91-0.664-1.165-1.165-0.291-0.57-0.291-1.317-0.291-2.811v-11.467z"></path>
</symbol>
<symbol id="face" stroke="black" fill="none" viewBox="0 0 38 32">
<path stroke-linejoin="miter" stroke-linecap="round" stroke-miterlimit="4" stroke-width="4.8" d="M5.736 4.683c-0.921 0.115-0.139 1.483 0.373 1.641 1.388 0.427 2.623-0.688 2.080-2.163-0.421-1.144-2.296-0.544-2.569 0.439-0.559 2.012 1.212 1.921 2.502 1.276"></path>
<path stroke-linejoin="miter" stroke-linecap="round" stroke-miterlimit="4" stroke-width="4.8" d="M23.931 3.937c-0.362 0-1.341 0.265-1.185 0.812 0.165 0.578 1.763 0.415 2.163 0.232 1.908-0.872-0.971-2.853-1.574-1.044"></path>
<path stroke-linejoin="miter" stroke-linecap="round" stroke-miterlimit="4" stroke-width="4.8" d="M3.2 19.896c0 1.978 1.974 4.228 3.273 5.527 2.531 2.531 6.671 3.839 10.217 3.87 5.191 0.046 9.657-0.584 13.564-4.251 2.876-2.699 5.311-6.344 5.311-10.366"></path>
</symbol>
<symbol id="click" viewBox="0 0 33 32">
<path fill="none" stroke="#e0a39a" style="stroke: var(--color1, #fff)" stroke-linejoin="miter" stroke-linecap="round" stroke-miterlimit="4" stroke-width="1.0435" d="M5.413 27.315c0.442 0 0.257-0.292-0.049-0.55-0.373-0.315-0.969-0.348-1.436-0.318-1.010 0.066-1.698 0.648-2.349 1.381-0.669 0.754-1.067 1.42-0.642 2.398 0.271 0.624 0.965 0.884 1.595 0.993 1.347 0.232 2.73-0.329 3.87-0.99"></path>
<path fill="none" stroke="#e0a39a" style="stroke: var(--color1, #fff)" stroke-linejoin="miter" stroke-linecap="round" stroke-miterlimit="4" stroke-width="1.0435" d="M7.557 19.671c0.008 0.083 0.034 0.164 0.055 0.244 0.485 1.825 0.993 3.646 1.531 5.456 0.319 1.075 0.628 2.149 0.999 3.208"></path>
<path fill="none" stroke="#e0a39a" style="stroke: var(--color1, #fff)" stroke-linejoin="miter" stroke-linecap="round" stroke-miterlimit="4" stroke-width="1.0435" d="M13.111 23.52c0.326 0.688 0.428 1.534 0.638 2.264 0.132 0.457 0.284 0.907 0.406 1.366"></path>
<path fill="none" stroke="#e0a39a" style="stroke: var(--color1, #fff)" stroke-linejoin="miter" stroke-linecap="round" stroke-miterlimit="4" stroke-width="1.0435" d="M12.506 21.101c-0.049 0.389 0.254 0.012-0.055-0.22"></path>
<path fill="none" stroke="#e0a39a" style="stroke: var(--color1, #fff)" stroke-linejoin="miter" stroke-linecap="round" stroke-miterlimit="4" stroke-width="1.0435" d="M18.885 22.201c0-0.255-0.045-0.287-0.367-0.244-0.74 0.098-1.539 0.321-1.512 1.191 0.017 0.543 0.071 1.422 0.559 1.772 0.336 0.24 0.814 0.362 1.222 0.351 0.657-0.017 1.144-0.335 1.747-0.486"></path>
<path fill="none" stroke="#e0a39a" style="stroke: var(--color1, #fff)" stroke-linejoin="miter" stroke-linecap="round" stroke-miterlimit="4" stroke-width="1.0435" d="M21.304 14.448c0.006 0.113 0.036 0.215 0.067 0.324 0.399 1.377 0.795 2.755 1.21 4.127 0.47 1.555 0.786 3.149 1.142 4.732"></path>
<path fill="none" stroke="#e0a39a" style="stroke: var(--color1, #fff)" stroke-linejoin="miter" stroke-linecap="round" stroke-miterlimit="4" stroke-width="1.0435" d="M25.318 18.957c-0.199 0.199-0.376 0.412-0.556 0.629-0.373 0.451-0.747 0.902-1.1 1.369-0.026 0.035-0.143 0.165-0.134 0.244 0.033 0.304 1.774 0.562 1.992 0.617 0.614 0.155 1.109 0.37 1.668 0.66"></path>
<path fill="none" stroke="#e0a39a" style="stroke: var(--color1, #fff)" stroke-linejoin="miter" stroke-linecap="round" stroke-miterlimit="4" stroke-width="1.0435" d="M24.933 13.458c-0.068-0.061-0.146-0.102-0.229-0.141-0.661-0.303-1.221-1.179-1.589-1.772-0.279-0.45-0.521-1.069-0.577-1.601-0.067-0.639 0.155-1.372 0.327-1.967 0.276-0.957 0.614-1.815 1.317-2.542 1.4-1.448 4.145-2.765 6.085-1.601"></path>
<path fill="none" stroke="#e0a39a" style="stroke: var(--color1, #fff)" stroke-linejoin="miter" stroke-linecap="round" stroke-miterlimit="4" stroke-width="1.0435" d="M28.452 0.536c0.009 0.083 0.083 0.142 0.141 0.196 0.791 0.731 1.659 1.387 2.505 2.053 0.362 0.285 0.737 0.629 1.161 0.831 0.111 0.053 0.302 0.089 0.36 0.214 0.184 0.389-0.957 0.982-1.167 1.143-0.61 0.467-1.011 0.992-1.46 1.613"></path>
</symbol>
</defs>
</svg>
